<?xml version="1.0" standalone="no"?><!DOCTYPE svg PUBLIC "-//W3C//DTD SVG 1.1//EN" "http://www.w3.org/Graphics/SVG/1.1/DTD/svg11.dtd"><svg t="1747064734026" class="icon" viewBox="0 0 1024 1024" version="1.1" xmlns="http://www.w3.org/2000/svg" p-id="4490" xmlns:xlink="http://www.w3.org/1999/xlink" width="200" height="200"><path d="M460.668 510.121c-3.564-2.771-5.972-4.264-7.924-6.213C318.514 369.75 184.347 235.519 50.062 101.413c-9.477-9.465-15.303-19.948-13.497-33.654 1.837-13.938 9.374-23.806 22.267-29.177 13.274-5.53 25.715-3.21 36.943 5.547 2.771 2.162 5.184 4.796 7.676 7.29a1374431.416 1374431.416 0 0 1 400.416 400.477c2.114 2.114 3.644 4.809 5.447 7.236 1.112 0.246 2.22 0.495 3.332 0.74 1.604-2.583 2.778-5.591 4.87-7.681C651.645 317.925 785.872 183.763 919.999 49.496c10.311-10.327 21.828-16.123 36.666-12.79 27.596 6.195 38.116 39.017 19.266 60.083-2.013 2.254-4.233 4.332-6.378 6.472C836.07 236.744 702.594 370.232 569.069 503.67c-2.114 2.114-4.747 3.717-8.713 6.773 4.09 3.148 6.955 4.894 9.263 7.203 133.882 133.793 267.699 267.66 401.599 401.435 8.163 8.159 14.15 17.035 14.078 29.032-0.091 15.384-7.073 26.827-20.787 33.325-14.027 6.642-27.521 4.553-39.528-5.481-2.509-2.094-4.76-4.512-7.078-6.838a4075231.75 4075231.75 0 0 1-399.902-399.921c-2.137-2.137-4.059-4.489-6.665-7.395-2.648 2.519-4.8 4.467-6.845 6.516C370.108 702.685 235.7 837.031 101.411 971.483c-10.819 10.837-22.973 16.27-38.213 12.195-26.279-7.02-35.809-38.762-17.88-59.262 1.989-2.277 4.193-4.366 6.337-6.508 133.67-133.678 267.338-267.354 401.033-401.009 1.952-1.945 4.201-3.593 7.968-6.799z" p-id="4491" fill="#ffffff"></path></svg>